#tb 0: 1/25
0,          0,          0,        1,   518400, 0xd8b58a23
0,          1,          1,        1,   518400, 0xe53b4aba
0,          2,          2,        1,   518400, 0x6cbca47a
0,          3,          3,        1,   518400, 0xceb51253
0,          4,          4,        1,   518400, 0x60cb3cdd
0,          5,          5,        1,   518400, 0x7b633553
0,          6,          6,        1,   518400, 0x10c012c9
0,          7,          7,        1,   518400, 0xa340ee20
0,          8,          8,        1,   518400, 0x574c22c2
0,          9,          9,        1,   518400, 0xbcdb1bf7
0,         10,         10,        1,   518400, 0x57811e9a
0,         11,         11,        1,   518400, 0xdd4af748
0,         12,         12,        1,   518400, 0xb931a637
0,         13,         13,        1,   518400, 0xcef6ce95
0,         14,         14,        1,   518400, 0xd28c7085
0,         15,         15,        1,   518400, 0xae9daf53
0,         16,         16,        1,   518400, 0xca29d819
0,         17,         17,        1,   518400, 0x3c4bd7eb
0,         18,         18,        1,   518400, 0x912ee227
0,         19,         19,        1,   518400, 0xb67d0e27
0,         20,         20,        1,   518400, 0x8cf7309d
0,         21,         21,        1,   518400, 0x358ad344
0,         22,         22,        1,   518400, 0x4462c642
0,         23,         23,        1,   518400, 0x3bb43428
0,         24,         24,        1,   518400, 0x12d6f8ca
0,         25,         25,        1,   518400, 0x003f13aa
0,         26,         26,        1,   518400, 0x6cd8c432
0,         27,         27,        1,   518400, 0xee5ff01b
0,         28,         28,        1,   518400, 0xba0616ee
0,         29,         29,        1,   518400, 0x37fa7891
